<svg id="Capa_1" enable-background="new 0 0 512 512" height="512" viewBox="0 0 512 512" width="512" xmlns="http://www.w3.org/2000/svg"><path d="m293.929 342.099c18.917 18.897 49.761 21.458 69.261 3.163 7.76-7.28 12.562-16.465 14.412-26.107.906-4.723 3.22-8.944 6.487-12.211l-4.944-23.423-123.084-104.605s-5.698 119.661 37.868 163.183z" fill="#95cc81"/><path d="m396.301 300.457c9.641-1.85 18.826-6.651 26.107-14.412 18.294-19.5 15.734-50.345-3.163-69.261-43.522-43.566-163.183-37.868-163.183-37.868l128.028 128.028c3.267-3.267 7.489-5.58 12.211-6.487z" fill="#aedb81"/><path d="m218.071 15.611c-18.917-18.897-49.761-21.458-69.261-3.163-7.76 7.28-12.562 16.465-14.412 26.107-.906 4.723-3.22 8.944-6.487 12.211l4.944 23.423 123.084 104.605s5.698-119.661-37.868-163.183z" fill="#95cc81"/><path d="m115.699 57.253c-9.641 1.85-18.826 6.651-26.107 14.412-18.294 19.5-15.734 50.345 3.163 69.261 43.522 43.566 163.183 37.868 163.183 37.868l-128.027-128.028c-3.268 3.267-7.49 5.58-12.212 6.487z" fill="#aedb81"/><path d="m419.244 140.926c18.897-18.917 21.458-49.761 3.163-69.261-7.28-7.76-16.465-12.562-26.107-14.412-4.723-.906-8.944-3.22-12.211-6.487l-23.423 4.944-104.605 123.084s119.661 5.698 163.183-37.868z" fill="#95cc81"/><path d="m377.602 38.554c-1.85-9.641-6.651-18.826-14.412-26.107-19.5-18.294-50.345-15.734-69.261 3.163-43.566 43.522-37.868 163.183-37.868 163.183l128.028-128.028c-3.267-3.267-5.58-7.489-6.487-12.211z" fill="#aedb81"/><path d="m92.756 216.784c-18.897 18.917-21.458 49.761-3.163 69.261 7.28 7.76 16.465 12.562 26.107 14.412 4.723.906 8.944 3.22 12.211 6.487l23.423-4.944 104.605-123.084s-119.661-5.698-163.183 37.868z" fill="#95cc81"/><path d="m134.398 319.156c1.85 9.641 6.651 18.826 14.412 26.107 19.501 18.294 50.345 15.734 69.261-3.163 43.566-43.522 37.868-163.183 37.868-163.183l-128.028 128.027c3.267 3.268 5.58 7.489 6.487 12.212z" fill="#aedb81"/><path d="m273.3 184.54c-3.174-3.174-3.174-8.32 0-11.493l91.071-91.075c3.175-3.174 3.175-8.317 0-11.492s-8.318-3.175-11.492 0l-91.071 91.074c-3.174 3.174-8.32 3.174-11.493 0l-91.071-91.074c-3.175-3.175-8.318-3.175-11.492 0s-3.175 8.318 0 11.492l91.071 91.075c3.174 3.174 3.174 8.319 0 11.493l-91.071 91.075c-3.175 3.175-3.175 8.317 0 11.492 1.587 1.587 3.667 2.381 5.746 2.381s4.159-.794 5.746-2.381l88.69-88.694v29.142c0 93.245-8.716 158.932-17.971 202.412 5.188 1.953 10.35 3.977 15.535 5.941 9.658-44.489 18.691-111.868 18.691-208.353v-29.142l88.69 88.694c1.587 1.587 3.667 2.381 5.746 2.381s4.159-.794 5.746-2.381c3.175-3.175 3.175-8.317 0-11.492z" fill="#c8eb82"/><path d="m238.162 422.603c-3.897 0-7.243 2.792-8.05 6.605-10.403 49.18-21.544 70.267-21.797 70.736-2.167 3.921-.754 8.857 3.167 11.032 1.246.694 2.603 1.024 3.937 1.024 2.857 0 5.627-1.508 7.111-4.179.91-1.642 12.815-23.794 23.666-75.225 1.084-5.134-2.786-9.993-8.034-9.993z" fill="#aedb81"/></svg>